<svg xmlns="http://www.w3.org/2000/svg" viewBox="0 0 543.17969 103.82757" height="110.749" width="579.392"><path d="M56.992 15.875c-22.604 0-33.015 11.781-33.015 25.483 0 26.713 39.316 21.233 39.316 42.88 0 9.04-6.849 18.768-22.877 18.768-19.317 0-22.193-13.975-24.387-28.633 0 0-13.552-1.295-15.76 10.432-2.257 13.239 10.417 15.461 10.417 15.461 7.4 1.644 19.318 3.562 29.867 3.562 26.85 0 36.168-12.467 36.168-26.304 0-29.044-40.005-23.564-40.005-43.976 0-8.768 7.397-16.713 20.825-16.713 14.796 0 20.137 9.725 22.603 26.44l.685-.136 4.66-26.578c-9.59 2.054-17.4-.686-28.497-.686m48.886 86.145c-7.533 0-10.809-4.585-10.809-10.89 0-7.206 4.259-11.628 8.189-13.92l15.475 19.815c-3.356 2.784-7.779 4.994-12.855 4.994m10.891-50.847c4.423 0 6.796 2.537 6.796 7.042 0 7.121-5.977 11.708-11.382 14.41l-1.638-2.127c-2.7-3.36-3.685-6.062-3.685-8.927 0-5.405 3.768-10.398 9.91-10.398m4.553 28.078c6.059 0 8.822 3.915 4.29 10.57l-13.184-16.786c6.796-2.211 18.586-4.75 18.586-13.101 0-5.815-5.73-9.336-14.328-9.336-10.81 0-18.834 5.897-18.834 14.412 0 4.094 1.884 7.696 3.931 10.318l1.145 1.472c-8.515 2.866-17.441 6.716-17.441 14.985 0 7.615 7.781 11.383 17.115 11.383 7.124 0 12.609-2.375 16.622-5.569l3.603 4.585h15.966l.164-.573c-3.521 0-4.994-1.146-8.025-5.076l-4.994-6.222c1.474-2.13.789-.662 2.18-3.529 2.784-5.24 3.766-7.533 11.138-7.533l.16-.572h-17.93l-.164.572z" fill="#f9c766"/><path d="M355.297 44.468s2.783-10.4 3.306-12.927c.482-1.904-.104-12.88-13.869-11.389-7.009.733-12.097 7.004-11.372 14.011l-.088.263c6.194 0 8.241 1.971 7.591 6.987l-1.12 4.752h-9.315l-.41 1.643h9.452l-9.042 38.908c-2.603 11.096 2.603 16.712 11.918 16.712 9.591 0 16.852-6.027 22.332-11.37l-.548-.547c-3.7 3.7-8.632 7.671-13.837 7.671-4.933 0-6.577-3.699-5.07-10.412l9.454-40.962h16.713l.41-1.643H355.09l.208-1.697zM398.056 0c-6.96.726-12.022 6.919-11.38 13.867l-.08.24c7.123 0 8.767 2.603 7.123 9.454L378.514 89.73c-1.92 8.219 1.094 13.699 8.905 13.699 5.48 0 11.644-2.74 17.535-6.438l.137-.96c-2.467 1.507-6.164 3.424-8.904 3.424-2.878 0-3.838-2.19-3.014-6.301l18.711-81.761S413.734 0 398.056 0m37.584 72.468c2.737-13.151 10.275-26.851 20-26.851 5.07 0 6.987 3.698 6.987 9.042 0 14.109-13.151 18.493-26.987 17.809m20.273-27.81c-19.316 0-37.398 15.205-37.398 35.345 0 12.877 7.533 23.562 24.11 23.562 14.658 0 23.838-8.63 29.453-15.205l-.683-.55c-4.932 5.893-12.742 12.605-22.193 12.605-10.139 0-14.522-7.67-14.522-18.22 0-2.74.273-5.617.82-8.767 13.838 1.231 41.238 1.094 41.238-14.249 0-8.494-8.63-14.521-20.825-14.521M214.124 80.14l-15.056-62.746c-2.235-9.266-6.914-14.266-14.917-14.106-8.088.161-14.513 6.847-14.35 14.935l.25-.005-.04.136c13.563 0 15.206 7.261 10.96 22.056l-4.932 16.03c-10.822 38.907-15.755 44.798-30.277 44.798l-.274.821h34.799l.136-.821c-14.249 0-14.385-6.028-3.15-44.799l7.671-25.62 17.125 68.775h.684l46.033-71.925-10.55 58.774c-1.645 9.451-4.933 14.795-15.07 14.795l-.137.821h41.373l.275-.821c-10.275 0-11.371-4.66-9.454-15.481l9.454-51.648c1.781-9.591 4.521-15.755 15.48-15.755l.274-.96h-26.44L214.124 80.14zM300.1 93.428l10.36-40.51s1.125-11.388-13.868-11.388c-7.01.731-12.1 7.004-11.374 14.011l-.086.263c7.123 0 8.767 2.602 7.123 9.454l-6.813 24.746c-1.92 8.217 1.095 13.699 8.905 13.699 5.48 0 11.645-2.74 17.535-6.439l.137-.959c-2.467 1.506-6.165 3.424-8.905 3.424-2.877 0-3.836-2.191-3.014-6.301m234.175-48.337c-8.142 0-15.394 9.439-20.084 19.029l2.447-10.657c.273-6.818-7.13-11.432-13.922-10.722-7.009.731-12.098 7.002-11.373 14.011l-.086.261c7.123 0 8.603 2.363 6.959 9.213l-8.328 36.266h15.48l3.1-13.452.003-.013 4.98-21.606c3.287-6.849 7.672-12.878 12.466-14.659 0 .549-.136 1.096-.136 1.644 0 5.07 3.972 9.044 8.63 9.044 4.795 0 8.769-3.974 8.769-9.18 0-4.795-3.425-9.179-8.905-9.179" fill="#fff"/></svg>